<?xml version="1.0" encoding="UTF-8"?><svg xmlns="http://www.w3.org/2000/svg" xmlns:xlink="http://www.w3.org/1999/xlink" version="1.1" id="Layer_1" x="0px" y="0px" viewBox="0 0 24 24" xml:space="preserve"><path d="M20.5 24.002h-17c-1.93 0-3.5-1.57-3.5-3.5v-17c0-1.93 1.57-3.5 3.5-3.5h17c1.93 0 3.5 1.57 3.5 3.5v17c0 1.93-1.57 3.5-3.5 3.5zm-17-23a2.503 2.503 0 0 0-2.5 2.5v17c0 1.378 1.121 2.5 2.5 2.5h17c1.379 0 2.5-1.122 2.5-2.5v-17c0-1.378-1.121-2.5-2.5-2.5h-17z"/><path d="M8.5 8.002h-8a.5.5 0 0 1 0-1h8a.5.5 0 0 1 0 1z"/><path d="M23.5 8.002h-8a.5.5 0 0 1 0-1h8a.5.5 0 0 1 0 1z"/><path d="M20.5 6.002h-3a.5.5 0 0 1-.5-.5v-3a.5.5 0 0 1 .5-.5h3a.5.5 0 0 1 .5.5v3a.5.5 0 0 1-.5.5zm-2.5-1h2v-2h-2v2z"/><path d="M2.5 5.002a.5.5 0 0 1-.5-.5v-3.5a.5.5 0 0 1 1 0v3.5a.5.5 0 0 1-.5.5z"/><path d="M4.5 5.002a.5.5 0 0 1-.5-.5v-4a.5.5 0 0 1 1 0v4a.5.5 0 0 1-.5.5z"/><path d="M6.5 5.002a.5.5 0 0 1-.5-.5v-4a.5.5 0 0 1 1 0v4a.5.5 0 0 1-.5.5z"/><path d="M12 18.002c-3.309 0-6-2.691-6-6s2.691-6 6-6 6 2.691 6 6-2.691 6-6 6zm0-11c-2.757 0-5 2.243-5 5s2.243 5 5 5 5-2.243 5-5-2.243-5-5-5z"/><path d="M12 15.002c-1.654 0-3-1.346-3-3s1.346-3 3-3 3 1.346 3 3-1.346 3-3 3zm0-5c-1.103 0-2 .897-2 2s.897 2 2 2 2-.897 2-2-.897-2-2-2z"/><metadata><rdf:RDF xmlns:rdf="http://www.w3.org/1999/02/22-rdf-syntax-ns#" xmlns:rdfs="http://www.w3.org/2000/01/rdf-schema#" xmlns:dc="http://purl.org/dc/elements/1.1/"><rdf:Description about="https://iconscout.com/legal#licenses" dc:title="instagram" dc:description="instagram" dc:publisher="Iconscout" dc:date="2018-01-03" dc:format="image/svg+xml" dc:language="en"><dc:creator><rdf:Bag><rdf:li>Icon 54</rdf:li></rdf:Bag></dc:creator></rdf:Description></rdf:RDF></metadata></svg>