<?xml version="1.0" encoding="UTF-8"?><svg xmlns="http://www.w3.org/2000/svg" xmlns:xlink="http://www.w3.org/1999/xlink" version="1.1" id="Layer_1" x="0px" y="0px" viewBox="0 0 24 24" xml:space="preserve"><path d="M12 20.851c-1.172 0-2.345-.05-3.509-.152l-5.294-.46A3.48 3.48 0 0 1 0 16.752V7.253a3.48 3.48 0 0 1 3.197-3.487l5.294-.46a40.513 40.513 0 0 1 7.018 0l5.294.46A3.482 3.482 0 0 1 24 7.253v9.499a3.48 3.48 0 0 1-3.197 3.487l-5.294.46a40.235 40.235 0 0 1-3.509.152zm0-16.697c-1.144 0-2.287.049-3.422.148l-5.294.46A2.488 2.488 0 0 0 1 7.253v9.499c0 1.307.982 2.377 2.284 2.491l5.294.46c2.271.197 4.573.197 6.844 0l5.294-.46A2.486 2.486 0 0 0 23 16.752V7.253a2.487 2.487 0 0 0-2.284-2.491l-5.294-.46A39.802 39.802 0 0 0 12 4.154z"/><path d="M9.5 17.003a.501.501 0 0 1-.5-.5v-9a.501.501 0 0 1 .77-.42l7 4.5a.499.499 0 0 1 0 .84l-7 4.5a.498.498 0 0 1-.27.08zm.5-8.584v7.168l5.575-3.584L10 8.419z"/><metadata><rdf:RDF xmlns:rdf="http://www.w3.org/1999/02/22-rdf-syntax-ns#" xmlns:rdfs="http://www.w3.org/2000/01/rdf-schema#" xmlns:dc="http://purl.org/dc/elements/1.1/"><rdf:Description about="https://iconscout.com/legal#licenses" dc:title="youtube" dc:description="youtube" dc:publisher="Iconscout" dc:date="2018-01-03" dc:format="image/svg+xml" dc:language="en"><dc:creator><rdf:Bag><rdf:li>Icon 54</rdf:li></rdf:Bag></dc:creator></rdf:Description></rdf:RDF></metadata></svg>