<svg id="Capa_1" enable-background="new 0 0 512 512" height="512" viewBox="0 0 512 512" width="512" xmlns="http://www.w3.org/2000/svg"><g><g><g><path d="m253.533 72.327 6.487 22.019c11.61 39.409 59.178 54.865 91.734 29.806l18.19-14.001c2.756-2.121 6.578.656 5.413 3.932l-7.694 21.626c-13.772 38.707 15.627 79.17 56.695 78.034l22.946-.635c3.476-.096 4.936 4.397 2.067 6.363l-18.937 12.973c-33.893 23.22-33.893 73.236 0 96.455l18.937 12.973c2.869 1.965 1.409 6.459-2.067 6.363l-22.946-.635c-41.068-1.136-70.467 39.327-56.695 78.034l7.694 21.626c1.166 3.276-2.657 6.054-5.413 3.932l-18.19-14.001c-32.557-25.059-80.125-9.603-91.734 29.806l-6.487 22.019c-.983 3.336-5.708 3.336-6.69 0l-6.487-22.019c-11.61-39.409-59.178-54.865-91.734-29.806l-18.19 14.001c-2.756 2.121-6.578-.656-5.413-3.932l7.694-21.626c13.772-38.707-15.627-79.17-56.695-78.034l-22.946.635c-3.476.096-4.936-4.397-2.067-6.363l18.937-12.973c33.893-23.22 33.893-73.236 0-96.455l-18.937-12.973c-2.869-1.965-1.409-6.459 2.067-6.363l22.946.635c41.068 1.136 70.467-39.327 56.695-78.034l-7.694-21.626c-1.166-3.276 2.657-6.054 5.413-3.932l18.19 14.001c32.557 25.059 80.125 9.603 91.734-29.806l6.487-22.019c.982-3.335 5.707-3.335 6.69 0z" fill="#fe9738"/></g><g><g><path d="m120 280.673c0-63.16 34.115-118.344 84.917-148.157-17.988 6.774-39.208 4.788-56.295-8.364l-18.19-14.001c-2.756-2.121-6.578.656-5.413 3.932l7.694 21.626c13.772 38.707-15.627 79.17-56.695 78.034l-22.946-.635c-3.476-.096-4.936 4.398-2.067 6.363l18.937 12.973c33.893 23.22 33.893 73.236 0 96.455l-18.937 12.973c-2.869 1.965-1.409 6.459 2.067 6.363l22.946-.635c41.068-1.136 70.467 39.327 56.695 78.034l-7.694 21.626c-1.166 3.276 2.657 6.054 5.413 3.932l18.19-14.001c17.087-13.152 38.307-15.138 56.295-8.364-50.802-29.809-84.917-84.993-84.917-148.154z" fill="#fe860a"/></g></g><g><circle cx="250.188" cy="280.673" fill="#fee45a" r="120.673"/></g><g><g><circle cx="250.188" cy="280.673" fill="#fed402" r="88.304"/></g><g><path d="m203.393 280.673c0-41.62 28.796-76.508 67.549-85.844-6.657-1.604-13.605-2.459-20.754-2.459-48.769 0-88.304 39.535-88.304 88.304s39.535 88.304 88.304 88.304c7.149 0 14.097-.856 20.754-2.459-38.754-9.337-67.549-44.226-67.549-85.846z" fill="#fac600"/></g></g></g><g><path d="m53.818 101.524c-6.31 19.541-13.223 26.454-32.764 32.764-2.369.765-2.369 4.135 0 4.899 19.541 6.31 26.454 13.223 32.764 32.764.765 2.369 4.135 2.369 4.899 0 6.31-19.541 13.223-26.454 32.764-32.764 2.369-.765 2.369-4.135 0-4.899-19.541-6.31-26.454-13.223-32.764-32.764-.764-2.368-4.134-2.368-4.899 0z" fill="#fed402"/></g><g><g><path d="m38.635 126.084c-4.457 3.274-10.089 5.786-17.581 8.205-2.369.765-2.369 4.135 0 4.899 19.541 6.31 26.454 13.224 32.764 32.764.765 2.369 4.135 2.369 4.899 0 2.419-7.49 4.929-13.12 8.202-17.577-5.661-15.941-12.347-22.629-28.284-28.291z" fill="#fac600"/></g></g><g><path d="m453.282 400.272c-6.31 19.541-13.223 26.454-32.764 32.764-2.369.765-2.369 4.135 0 4.899 19.541 6.31 26.454 13.223 32.764 32.764.765 2.369 4.135 2.369 4.899 0 6.31-19.541 13.223-26.454 32.764-32.764 2.369-.765 2.369-4.135 0-4.899-19.541-6.31-26.454-13.223-32.764-32.764-.764-2.369-4.134-2.369-4.899 0z" fill="#fed402"/></g><g><g><path d="m436.404 426.003c-4.173 2.717-9.313 4.91-15.886 7.032-2.369.765-2.369 4.135 0 4.899 19.541 6.31 26.454 13.223 32.764 32.764.765 2.369 4.135 2.369 4.899 0 2.098-6.498 4.267-11.594 6.941-15.742-5.732-16.433-12.425-23.206-28.718-28.953z" fill="#fac600"/></g></g><g><path d="m424.15 355.1 22.945.635c4.907.143 9.234-2.912 10.754-7.586 1.52-4.675-.184-9.683-4.239-12.462l-18.937-12.973c-14.082-9.647-22.158-24.97-22.158-42.04 0-17.069 8.076-32.394 22.158-42.041l18.938-12.974c4.054-2.778 5.757-7.785 4.239-12.459-1.519-4.674-5.823-7.745-10.753-7.588l-22.946.635c-17.071.464-32.604-7.178-42.638-20.987-10.033-13.81-12.505-30.953-6.784-47.035l7.695-21.627c1.647-4.631.083-9.683-3.894-12.572-3.976-2.889-9.264-2.815-13.16.183l-18.19 14.001c-9.496 7.31-20.775 10.967-32.595 10.577-4.129-.137-7.606 3.109-7.743 7.25-.136 4.14 3.11 7.605 7.25 7.742 15.339.5 29.952-4.227 42.238-13.683l7.397-5.693-3.129 8.794c-7.297 20.51-4.015 43.269 8.78 60.88 12.796 17.612 33.417 27.763 55.188 27.165l9.33-.258-7.701 5.274c-17.958 12.305-28.68 32.647-28.68 54.417 0 21.769 10.722 42.11 28.681 54.414l7.7 5.274-9.33-.258c-21.75-.597-42.392 9.553-55.188 27.164-12.796 17.612-16.078 40.371-8.781 60.881l3.128 8.794-7.396-5.693c-17.251-13.277-39.91-17.188-60.614-10.462-20.704 6.728-36.737 23.21-42.889 44.093l-2.637 8.952-2.638-8.952c-6.152-20.883-22.185-37.365-42.889-44.093-20.703-6.728-43.363-2.816-60.614 10.462l-7.396 5.692 3.128-8.793c7.297-20.51 4.015-43.27-8.781-60.881-12.795-17.611-33.426-27.768-55.188-27.164l-9.33.258 7.7-5.274c17.959-12.304 28.681-32.646 28.681-54.414 0-21.77-10.722-42.112-28.681-54.417l-7.7-5.274 9.33.258c21.759.598 42.392-9.552 55.188-27.164 12.795-17.612 16.078-40.371 8.781-60.88l-3.129-8.795 7.396 5.693c17.252 13.278 39.911 17.19 60.614 10.462 20.704-6.728 36.737-23.21 42.889-44.093l2.638-8.953 2.637 8.953c4.104 13.933 12.375 25.806 23.918 34.338 3.331 2.461 8.027 1.759 10.489-1.573 2.462-3.331 1.758-8.027-1.573-10.489-8.894-6.573-15.272-15.742-18.445-26.514l-6.486-22.02c-1.389-4.715-5.625-7.882-10.541-7.882-4.915 0-9.15 3.168-10.539 7.883l-6.487 22.019c-4.824 16.374-16.901 28.79-33.136 34.065-16.234 5.274-33.303 2.328-46.83-8.083l-18.19-14.001c-3.896-2.997-9.184-3.071-13.16-.183-3.977 2.889-5.542 7.941-3.894 12.572l7.695 21.627c5.722 16.082 3.249 33.226-6.784 47.035-10.034 13.81-25.584 21.459-42.638 20.987l-22.946-.635c-4.914-.146-9.234 2.914-10.753 7.588s.185 9.681 4.24 12.46l18.937 12.973c14.082 9.647 22.158 24.972 22.158 42.041 0 17.07-8.077 32.393-22.158 42.04l-18.938 12.974c-4.055 2.778-5.758 7.786-4.238 12.461s5.863 7.731 10.753 7.586l22.945-.635c17.079-.463 32.604 7.178 42.637 20.986 10.034 13.811 12.506 30.954 6.785 47.036l-7.695 21.627c-1.647 4.631-.082 9.684 3.895 12.572 3.978 2.889 9.265 2.814 13.159-.183l18.19-14.001c13.526-10.412 30.594-13.358 46.83-8.083 16.234 5.275 28.312 17.691 33.136 34.065l6.487 22.019c1.388 4.715 5.624 7.883 10.539 7.883h.001c4.915 0 9.15-3.168 10.54-7.883l6.486-22.019c4.824-16.374 16.901-28.79 33.136-34.065 16.235-5.271 33.304-2.327 46.83 8.083l18.19 14.001c3.896 2.998 9.184 3.068 13.16.183 3.977-2.89 5.541-7.941 3.894-12.572l-7.694-21.626c-5.722-16.083-3.249-33.227 6.784-47.036 10.032-13.81 25.574-21.475 42.636-20.986z"/><path d="m274.941 406.448c59.926-11.729 103.42-64.626 103.42-125.774 0-70.676-57.499-128.174-128.173-128.174-70.675 0-128.174 57.498-128.174 128.174 0 32.07 11.904 62.762 33.521 86.421 21.473 23.503 50.683 38.118 82.248 41.152.244.023.486.035.727.035 3.819-.001 7.084-2.904 7.457-6.783.396-4.123-2.625-7.787-6.748-8.184-27.86-2.678-53.646-15.583-72.609-36.338-19.084-20.889-29.595-47.987-29.595-76.304 0-62.404 50.77-113.174 113.174-113.174s113.173 50.77 113.173 113.174c0 53.993-38.398 100.698-91.302 111.054-4.065.796-6.715 4.736-5.919 8.801.795 4.066 4.734 6.71 8.8 5.92z"/><path d="m328.976 262.664c.918 4.039 4.937 6.565 8.977 5.649 4.039-.92 6.568-4.938 5.649-8.978-4.739-20.826-16.548-39.727-33.251-53.222-16.957-13.699-38.323-21.244-60.163-21.244-52.826 0-95.804 42.978-95.804 95.804s42.978 95.803 95.804 95.803c46.647 0 86.333-33.302 94.362-79.184.714-4.08-2.015-7.967-6.095-8.681-4.082-.707-7.966 2.015-8.681 6.095-6.771 38.688-40.242 66.77-79.587 66.77-44.555 0-80.804-36.248-80.804-80.803 0-44.556 36.249-80.804 80.804-80.804 18.688 0 36.232 6.193 50.736 17.912 14.096 11.388 24.058 27.327 28.053 44.883z"/><path d="m421.778 147.874h13.068v13.068c0 4.143 3.358 7.5 7.5 7.5s7.5-3.357 7.5-7.5v-13.068h13.068c4.142 0 7.5-3.357 7.5-7.5s-3.358-7.5-7.5-7.5h-13.068v-13.067c0-4.143-3.358-7.5-7.5-7.5s-7.5 3.357-7.5 7.5v13.067h-13.068c-4.142 0-7.5 3.357-7.5 7.5s3.358 7.5 7.5 7.5z"/><path d="m198.619 476.432h-13.068v-13.067c0-4.143-3.358-7.5-7.5-7.5s-7.5 3.357-7.5 7.5v13.067h-13.068c-4.142 0-7.5 3.357-7.5 7.5s3.358 7.5 7.5 7.5h13.068v13.068c0 4.143 3.358 7.5 7.5 7.5s7.5-3.357 7.5-7.5v-13.068h13.068c4.142 0 7.5-3.357 7.5-7.5s-3.358-7.5-7.5-7.5z"/><path d="m302.047 42.543h20.043v20.042c0 4.143 3.358 7.5 7.5 7.5s7.5-3.357 7.5-7.5v-20.042h20.042c4.142 0 7.5-3.357 7.5-7.5s-3.358-7.5-7.5-7.5h-20.042v-20.043c0-4.143-3.358-7.5-7.5-7.5s-7.5 3.357-7.5 7.5v20.043h-20.043c-4.142 0-7.5 3.357-7.5 7.5s3.358 7.5 7.5 7.5z"/><path d="m56.267 181.229c.001 0 .001 0 0 0 4.388 0 8.241-2.802 9.588-6.972 5.543-17.167 10.764-22.388 27.934-27.932 4.17-1.348 6.971-5.201 6.97-9.589 0-4.387-2.803-8.238-6.972-9.584-17.167-5.544-22.388-10.766-27.932-27.934-1.347-4.17-5.2-6.971-9.587-6.971-4.387.001-8.24 2.803-9.586 6.972-5.543 17.167-10.764 22.388-27.931 27.932-4.169 1.347-6.972 5.198-6.972 9.585-.001 4.388 2.8 8.241 6.972 9.589 17.167 5.544 22.388 10.765 27.931 27.931 1.345 4.171 5.197 6.973 9.585 6.973zm-20.964-44.491c9.902-4.831 16.134-11.063 20.965-20.965 4.831 9.902 11.063 16.134 20.965 20.965-9.902 4.831-16.134 11.063-20.965 20.965-4.831-9.902-11.063-16.134-20.965-20.965z"/><path d="m493.25 425.899c-17.167-5.544-22.388-10.766-27.932-27.933-1.346-4.169-5.199-6.971-9.586-6.972 0 0 0 0-.001 0-4.387 0-8.239 2.802-9.586 6.971v.001c-5.543 17.167-10.764 22.389-27.931 27.932-4.169 1.347-6.972 5.198-6.972 9.585-.001 4.388 2.8 8.241 6.972 9.589 17.167 5.543 22.388 10.765 27.932 27.932 1.347 4.171 5.2 6.973 9.588 6.973 4.388-.001 8.24-2.803 9.586-6.973 5.544-17.167 10.765-22.389 27.934-27.932 4.17-1.348 6.971-5.201 6.97-9.589-.002-4.386-2.805-8.238-6.974-9.584zm-37.518 30.552c-4.831-9.902-11.063-16.135-20.965-20.966 9.902-4.831 16.134-11.063 20.965-20.965 4.831 9.901 11.063 16.134 20.965 20.965-9.902 4.831-16.134 11.063-20.965 20.966z"/></g></g></svg>