<?xml version="1.0" standalone="no"?>
<!DOCTYPE svg PUBLIC "-//W3C//DTD SVG 20010904//EN"
 "http://www.w3.org/TR/2001/REC-SVG-20010904/DTD/svg10.dtd">
<svg version="1.0" xmlns="http://www.w3.org/2000/svg"
 width="200.000000pt" height="200.000000pt" viewBox="0 0 200.000000 200.000000"
 preserveAspectRatio="xMidYMid meet">

<g transform="translate(0.000000,200.000000) scale(0.100000,-0.100000)"
fill="#000000" stroke="none">
<path d="M138 1894 c-15 -8 -32 -23 -38 -34 -5 -10 -10 -83 -10 -162 0 -207 6
-211 230 -206 141 3 142 3 166 31 19 22 24 39 24 83 l0 54 65 0 65 0 0 -100 0
-100 -40 0 c-22 0 -40 -3 -40 -6 0 -11 105 -174 112 -174 3 0 31 39 62 88 l55
87 -39 3 -40 3 0 140 0 139 -100 0 -100 0 0 45 c0 56 -20 97 -55 113 -39 18
-282 15 -317 -4z m296 -50 c13 -5 16 -27 16 -138 0 -89 -4 -136 -12 -144 -17
-17 -259 -17 -276 0 -17 17 -17 259 0 276 13 13 242 18 272 6z"/>
<path d="M496 1189 l-26 -20 0 -169 0 -169 26 -20 c26 -21 36 -21 520 -21 576
0 534 -8 534 105 l0 65 60 0 60 0 0 -104 0 -105 -45 -3 -45 -3 58 -87 c31 -48
59 -88 62 -88 3 0 31 40 62 88 l58 87 -45 3 -45 3 0 145 0 144 -89 0 -89 0 -4
66 c-7 112 33 104 -538 104 -478 0 -488 0 -514 -21z m314 -189 l0 -150 -140 0
-140 0 0 150 0 150 140 0 140 0 0 -150z m340 0 l0 -150 -140 0 -140 0 0 150 0
150 140 0 140 0 0 -150z m340 0 l0 -150 -140 0 -140 0 0 150 0 150 140 0 140
0 0 -150z"/>
<path d="M1538 494 c-15 -8 -32 -23 -38 -34 -5 -10 -10 -83 -10 -162 0 -207 6
-211 230 -206 141 3 142 3 166 31 23 27 24 34 24 173 0 81 -5 154 -10 165 -22
39 -61 49 -202 49 -98 -1 -140 -5 -160 -16z m296 -50 c13 -5 16 -27 16 -138 0
-89 -4 -136 -12 -144 -17 -17 -259 -17 -276 0 -8 8 -12 53 -12 138 0 85 4 130
12 138 13 13 242 18 272 6z"/>
</g>
</svg>
